<svg width="98.786171mm" height="72.659157mm" viewBox="0 0 98.786171 72.659157" version="1.1" xmlns="http://www.w3.org/2000/svg">< pagecolor="#ffffff" bordercolor="#000000" borderopacity="0.25" /><defs/><path id="path25" style="display:inline;opacity:1;fill:#ffffff;fill-opacity:1;stroke:none;stroke-width:6.3;stroke-miterlimit:9.8;stroke-dasharray:none;stroke-opacity:1;paint-order:markers stroke fill" d="m 100.37424,66.821761 c -0.12448,-8.3e-4 -0.24916,-10e-4 -0.37414,-10e-4 -29.517319,0 -43.997834,22.944649 -43.997834,37.669529 0,14.72489 7.932415,24.94732 43.997834,24.94732 0.12505,0 0.24974,2e-4 0.37414,0 z m 0,0 c 0.12448,-8.3e-4 0.24916,-10e-4 0.37414,-10e-4 29.51732,0 43.99783,22.944649 43.99783,37.669529 0,14.72489 -7.93241,24.94732 -43.99783,24.94732 -0.12505,0 -0.24974,2e-4 -0.37414,0 z" transform="translate(-50.981154,-61.799649)" /><path id="path27" style="display:inline;opacity:1;fill:#000000;fill-opacity:1;stroke:none;stroke-width:6.3;stroke-miterlimit:9.8;stroke-dasharray:none;stroke-opacity:1;paint-order:markers stroke fill" d="m 100.37424,66.821761 c -0.12448,-8.3e-4 -0.24916,-10e-4 -0.37414,-10e-4 -29.517319,0 -49.606884,21.772842 -49.606884,41.472279 0,14.72489 13.541465,21.14457 49.606884,21.14457 0.12505,0 0.24974,2e-4 0.37414,0 z m 0,0 c 0.12448,-8.3e-4 0.24916,-10e-4 0.37414,-10e-4 29.51732,0 49.60688,21.772842 49.60688,41.472279 0,14.72489 -13.54146,21.14457 -49.60688,21.14457 -0.12505,0 -0.24974,2e-4 -0.37414,0 z" transform="matrix(0.69576922,0,0,0.69576922,-20.444221,-31.945717)" /><path style="display:inline;opacity:1;fill:#16b5f7;fill-opacity:1;stroke:none;stroke-width:6.66221;stroke-linejoin:miter;stroke-miterlimit:9.8;stroke-dasharray:none;stroke-opacity:1;paint-order:markers stroke fill" d="m 92.658222,90.844591 c 4.428088,-0.146509 8.031348,2.066933 8.423298,5.174339 0.0559,0.443044 0.0441,0.893334 -0.0352,1.343132 -2.498892,-0.600788 -5.606204,-0.85031 -8.820069,-0.708264 -3.154254,0.139349 -6.232203,0.647987 -8.754045,1.446627 -0.318483,-3.378832 3.248661,-6.560882 8.031143,-7.164135 0.383954,-0.04838 0.769723,-0.07901 1.154832,-0.0917 z" transform="matrix(0.99871721,0.05063529,-0.06273542,0.99803019,-50.981154,-61.799649)" id="path3" /><path style="display:inline;opacity:1;fill:#16b5f7;fill-opacity:1;stroke:none;stroke-width:6.66221;stroke-linejoin:miter;stroke-miterlimit:9.8;stroke-dasharray:none;stroke-opacity:1;paint-order:markers stroke fill" d="m 119.65457,89.148788 c -4.41161,0.408766 -7.70956,3.055714 -7.70958,6.187742 -5e-5,0.446561 0.068,0.891836 0.20296,1.328175 2.40407,-0.908773 5.45573,-1.545177 8.66211,-1.806425 3.1469,-0.256464 6.2643,-0.136993 8.86626,0.33979 -0.10684,-3.392126 -4.04414,-6.102778 -8.86452,-6.102817 -0.38699,4.9e-5 -0.77356,0.01793 -1.15723,0.05353 z" transform="matrix(0.99871721,0.05063529,-0.06273542,0.99803019,-50.981154,-61.799649)" id="path29" /></svg>